<svg viewBox="150 50 500 400" xmlns="http://www.w3.org/2000/svg" class="w-full h-full" style="opacity: 1; background: transparent;">
	<polygon points="400,218 428.2842712474619,227.37258300203047 440,250 428.2842712474619,272.62741699796953 400,282 371.7157287525381,272.62741699796953 360,250 371.7157287525381,227.37258300203047" fill="none" stroke="#ff1a1aff" stroke-width="1.5" opacity="0.6" style="filter: drop-shadow(rgb(255, 26, 26) 0px 0px 3px); transform-origin: 50% 50%; transform: rotate(307.782deg); transform-box: fill-box;"/>
	<polygon points="400,198 445.9619407771256,213.23044737829952 465,250 445.9619407771256,286.7695526217005 400,302 354.03805922287444,286.7695526217005 335,250 354.0380592228744,213.23044737829952" fill="none" stroke="hsl(10, 100%, 57%)" stroke-width="1.5" opacity="0.6" style="filter: drop-shadow(rgb(255, 72, 36) 0px 0px 3px); transform-origin: 50% 50%; transform: rotate(307.782deg); transform-box: fill-box;"/>
	<polygon points="400,178 463.6396103067893,199.08831175456856 490,250 463.6396103067893,300.91168824543144 400,322 336.3603896932107,300.91168824543144 310,250 336.3603896932107,199.08831175456856" fill="none" stroke="hsl(20, 100%, 59%)" stroke-width="1.5" opacity="0.6" style="filter: drop-shadow(rgb(255, 116, 46) 0px 0px 3px); transform-origin: 50% 50%; transform: rotate(307.782deg); transform-box: fill-box;"/>
	<polygon points="400,158 481.31727983645294,184.9461761308376 515,250 481.31727983645294,315.0538238691624 400,342 318.68272016354706,315.0538238691624 285,250 318.682720163547,184.9461761308376" fill="none" stroke="hsl(30, 100%, 61%)" stroke-width="1.5" opacity="0.6" style="filter: drop-shadow(rgb(255, 156, 56) 0px 0px 3px); transform-origin: 50% 50%; transform: rotate(307.782deg); transform-box: fill-box;"/>
	<polygon points="400,138 498.99494936611666,170.80404050710666 540,250 498.99494936611666,329.19595949289334 400,362 301.00505063388334,329.19595949289334 260,250 301.00505063388334,170.80404050710666" fill="none" stroke="hsl(40, 100%, 63%)" stroke-width="1.5" opacity="0.6" style="filter: drop-shadow(rgb(255, 192, 66) 0px 0px 3px); transform-origin: 50% 50%; transform: rotate(307.782deg); transform-box: fill-box;"/>
	<polygon points="400,118 516.6726188957804,156.6619048833757 565,250 516.6726188957804,343.3380951166243 400,382 283.3273811042197,343.3380951166243 235,250.00000000000003 283.3273811042196,156.6619048833757" fill="none" stroke="hsl(50, 100%, 65%)" stroke-width="1.5" opacity="0.6" style="filter: drop-shadow(rgb(255, 225, 77) 0px 0px 3px); transform-origin: 50% 50%; transform: rotate(307.782deg); transform-box: fill-box;"/>
	<polygon points="400,98 534.350288425444,142.5197692596448 590,250 534.350288425444,357.4802307403552 400,402 265.649711574556,357.48023074035524 210,250.00000000000003 265.6497115745559,142.5197692596448" fill="none" stroke="hsl(60, 100%, 67%)" stroke-width="1.5" opacity="0.6" style="filter: drop-shadow(rgb(255, 255, 87) 0px 0px 3px); transform-origin: 50% 50%; transform: rotate(307.782deg); transform-box: fill-box;"/>
	<polygon points="400,78 552.0279579551077,128.37763363591384 615,250 552.0279579551077,371.62236636408613 400,422 247.9720420448923,371.6223663640862 185,250.00000000000003 247.97204204489225,128.37763363591384" fill="none" stroke="hsl(70, 100%, 69%)" stroke-width="1.5" opacity="0.6" style="filter: drop-shadow(rgb(229, 255, 97) 0px 0px 3px); transform-origin: 50% 50%; transform: rotate(307.782deg); transform-box: fill-box;"/>
</svg>
